<?xml version="1.0" encoding="utf-8"?>
<!-- Generator: Adobe Illustrator 27.5.0, SVG Export Plug-In . SVG Version: 6.00 Build 0)  -->
<svg version="1.1" xmlns="http://www.w3.org/2000/svg" xmlns:xlink="http://www.w3.org/1999/xlink" x="0px" y="0px"
	 viewBox="0 0 3710 3710" style="enable-background:new 0 0 3710 3710;" xml:space="preserve">
<g id="Background">
	<g>
		<g>
			<rect style="fill:#FFFFFF;" width="3710" height="3710"/>
		</g>
	</g>
</g>
<g id="Illustration">
	<g>
		<path style="fill:#F4F7FA;" d="M2988.896,2607.926c-568.187,726.776-1898.819,738.445-2267.178,334.747
			c-147.016-161.097-185.833-437.784-242.892-844.205c-27.468-195.643-31.402-353.346-33.734-461.546
			c-8.042-368.055-12.045-552.101,47.205-677.308c169.715-358.402,759.278-497.895,1140.345-504.366
			c26.596-0.46,53.437-0.283,80.487,0.53c446.201,13.295,949.707,199.038,1260.24,595.946
			c32.099,40.946,62.072,84.155,89.75,129.663C3346.569,1647.495,3298.874,2211.477,2988.896,2607.926z"/>
		<g>
			
				<linearGradient id="SVGID_1_" gradientUnits="userSpaceOnUse" x1="5033.8667" y1="140.54" x2="4929.9834" y2="394.8753" gradientTransform="matrix(0.9198 0.3924 -0.3924 0.9198 -1454.293 -1131.8199)">
				<stop  offset="0.0036" style="stop-color:#E38DDD"/>
				<stop  offset="1" style="stop-color:#9571F6"/>
			</linearGradient>
			<path style="fill:url(#SVGID_1_);" d="M2806.657,1234.464l22.262-72.607c7.808-25.466,35.964-38.549,60.463-28.096l45.988,19.622
				c24.754,10.562,34.691,40.398,21.214,63.693l-33.69,58.232L2806.657,1234.464z"/>
			
				<linearGradient id="SVGID_00000090279204275305127810000000130543024125718198_" gradientUnits="userSpaceOnUse" x1="4548.04" y1="1271.088" x2="5270.3945" y2="1271.088" gradientTransform="matrix(0.9198 0.3924 -0.3924 0.9198 -1454.293 -1131.8199)">
				<stop  offset="0" style="stop-color:#311944"/>
				<stop  offset="1" style="stop-color:#A03976"/>
			</linearGradient>
			<path style="fill:url(#SVGID_00000090279204275305127810000000130543024125718198_);" d="M2925.045,1254.301
				c13.457,11.098,16.269,30.568,6.68,45.138c-59.387,90.237-125.64,221.101-141.705,384.719
				c-15.246,155.281,23.386,251.701,36.608,350.123c20.574,153.144-11.549,376.828-249.746,682.797
				c-33.138,42.567-88.411,61.266-140.648,47.796c-133.385-34.397-256.107-84.752-366.088-154.178
				c-45.275-28.58-69.552-81.026-61.867-134.012c55.859-385.122,195.391-563.575,320.411-654.859
				c80.202-58.56,176.542-97.391,278.093-215.848c107.003-124.817,155.631-263.202,179.681-368.516
				c3.883-17.005,19.885-28.447,37.208-26.411C2861.708,1215.519,2895.499,1229.936,2925.045,1254.301z"/>
			<g>
				
					<linearGradient id="SVGID_00000018227001794541096460000016529375028227243198_" gradientUnits="userSpaceOnUse" x1="4779.6504" y1="1271.0773" x2="5270.394" y2="1271.0773" gradientTransform="matrix(0.9198 0.3924 -0.3924 0.9198 -1454.293 -1131.8199)">
					<stop  offset="0" style="stop-color:#311944"/>
					<stop  offset="1" style="stop-color:#A03976"/>
				</linearGradient>
				<path style="fill:url(#SVGID_00000018227001794541096460000016529375028227243198_);" d="M2826.628,2034.281
					c-13.222-98.422-51.854-194.842-36.608-350.123c16.065-163.618,82.318-294.482,141.706-384.719
					c9.588-14.57,6.776-34.04-6.68-45.138c-29.546-24.365-63.337-38.783-101.372-43.253c-4.96-0.583-9.797-0.029-14.286,1.411
					c13.469,44.755,21.908,96.227,18.109,152.3c-12.997,191.84-155.942,243.011-258.625,463.425
					c-117.066,251.288-8.403,350.345-112.299,542.832c-47.633,88.25-138.097,192.7-326.142,275.116
					c93.986,51.477,196.293,90.5,305.803,118.74c52.237,13.471,107.51-5.228,140.649-47.796
					C2815.078,2411.109,2847.201,2187.425,2826.628,2034.281z"/>
			</g>
			<path style="opacity:0.57;fill:#FFFFFF;" d="M2670.065,2109.834l-308.826-131.768c-21.203-9.047-45.727,0.808-54.774,22.012
				l-112.28,263.151c-9.047,21.204,0.809,45.727,22.012,54.774l308.826,131.768c21.204,9.047,45.727-0.808,54.774-22.012
				l112.279-263.15C2701.124,2143.404,2691.269,2118.881,2670.065,2109.834z"/>
		</g>
		<g>
			
				<linearGradient id="SVGID_00000101071674463704806380000006609016169598713757_" gradientUnits="userSpaceOnUse" x1="2072.7178" y1="1628.5533" x2="2152.0015" y2="1628.5533">
				<stop  offset="0" style="stop-color:#311944"/>
				<stop  offset="1" style="stop-color:#893976"/>
			</linearGradient>
			<path style="fill:url(#SVGID_00000101071674463704806380000006609016169598713757_);" d="M2150.101,1519.182
				c-2.823-6.66-8.506-11.688-15.459-13.682c-16.736-4.798-34.602,1.25-43.322,16.319c-39.445,68.161-3.897,231.4-3.897,231.4
				h26.588c-13.708-100.117,15.548-177.755,35.177-214.599C2152.588,1532.235,2152.924,1525.842,2150.101,1519.182z"/>
			
				<linearGradient id="SVGID_00000146494022936007461370000005855533532854981047_" gradientUnits="userSpaceOnUse" x1="1802.3337" y1="2023.6606" x2="2546.6787" y2="2023.6606">
				<stop  offset="0" style="stop-color:#FF9085"/>
				<stop  offset="1" style="stop-color:#FB6FBB"/>
			</linearGradient>
			<path style="fill:url(#SVGID_00000146494022936007461370000005855533532854981047_);" d="M2539.559,1961.861
				c-8.688,51.361-19.313,111.411-35.807,169.808c-18.971,67.143-45.635,132.177-85.886,179.408
				c-65.519,76.913-131.038,34.184-279.167,34.184c-95.231,0-125.854-41.106-177.1-112.664
				c-58.027-80.987-130.468-154.329-153.315-254.83c-20.909-92.068,14.074-183.121,92.781-224.548h0.028
				c22.932-6.905,49.595-14.539,79.648-13.171c23.245,1.054,45.35,2.815,66.888,3.271c50.477,1.026,98.078-1.641,151.262-19.359
				c77.511-25.837,253.217-67.991,313.636,16.044C2553.689,1797.232,2550.526,1896.741,2539.559,1961.861z"/>
			
				<linearGradient id="SVGID_00000133522636386085726100000000531894990356761514_" gradientUnits="userSpaceOnUse" x1="1802.3337" y1="2055.1582" x2="2503.7517" y2="2055.1582">
				<stop  offset="0" style="stop-color:#FF9085"/>
				<stop  offset="1" style="stop-color:#FB6FBB"/>
			</linearGradient>
			<path style="opacity:0.3;fill:url(#SVGID_00000133522636386085726100000000531894990356761514_);" d="M2503.752,2131.669
				c-18.971,67.143-45.635,132.177-85.886,179.408c-65.519,76.913-131.038,34.184-279.167,34.184
				c-95.231,0-125.854-41.106-177.1-112.664c-58.027-80.987-130.468-154.329-153.315-254.83
				c-20.909-92.068,14.074-183.121,92.781-224.548h0.028c0,0-97.11,243.321,79.506,293.172
				c176.616,49.851,189.435,252.698,346.111,165.814C2396.843,2173.322,2457.575,2143.577,2503.752,2131.669z"/>
			<path style="opacity:0.5;fill:#FFFFFF;" d="M2380.833,1745.118c0,0-142.432-24.149-99.703,78.621
				s159.524,201.334,199.405,130.687S2463.444,1771.678,2380.833,1745.118z"/>
		</g>
		<g>
			<g>
				
					<linearGradient id="SVGID_00000102521986433006458940000011017116994113736832_" gradientUnits="userSpaceOnUse" x1="-4099.7349" y1="-2899.3218" x2="-3308.615" y2="2158.209" gradientTransform="matrix(0.5248 -0.8512 0.8512 0.5248 5083.8101 144.0943)">
					<stop  offset="0.0036" style="stop-color:#E38DDD"/>
					<stop  offset="1" style="stop-color:#9571F6"/>
				</linearGradient>
				<path style="fill:url(#SVGID_00000102521986433006458940000011017116994113736832_);" d="M1345.375,3123.962
					c176.802-29.372,349.888-75.34,522.002-124.692c82.806-23.744,165.664-46.354,249.233-67.259
					c78.587-19.659,157.113-40.182,233.052-68.619c9.261-3.647,18.45-7.458,27.6-11.358
					c-42.897-156.37-32.182-361.73-299.372-340.497c-271.824,21.602-442.221,186.852-567.14-198.336s-697.02-948.391-987.463-527.67
					c-166.686,241.455,192.154,467.296,169.948,749.393c-21.099,268.064,147.625,413.821,438.879,452.325
					C1275.047,3006.145,1327.27,3052.898,1345.375,3123.962z"/>
				<g>
					<defs>
						<path id="SVGID_00000070814207714044988800000013132369278467087266_" d="M2259.882,2551.738
							c-15.13-34.077-80.372-48.277-181.991-40.201c-271.824,21.602-442.221,186.852-567.14-198.336s-697.02-948.391-987.463-527.67
							c-166.686,241.455,192.154,467.296,169.948,749.393c-21.099,268.064,147.625,413.821,438.879,452.325
							c188.367,24.902,161.031,72.905,187.651,81.234C1714.264,3191.924,2314.388,2674.511,2259.882,2551.738z"/>
					</defs>
					<clipPath id="SVGID_00000057854673980172239650000006047949320131626932_">
						<use xlink:href="#SVGID_00000070814207714044988800000013132369278467087266_"  style="overflow:visible;"/>
					</clipPath>
					<g style="clip-path:url(#SVGID_00000057854673980172239650000006047949320131626932_);">
						<g>
							<path style="fill:#FCFDFE;" d="M1421.615,2779.411c115.885,92.596,238.474,173.505,366.337,242.307
								c1.998-0.556,3.995-1.109,5.992-1.666c-525.081-280.299-952.205-762.028-1210.854-1390.848l-5.698,2.341
								C767.111,2092.78,1059.038,2489.706,1421.615,2779.411z"/>
							<path style="fill:#FCFDFE;" d="M2230.101,2902.13c-44.044-122.24-72.777-268.815-85.483-436.423l-6.141,0.468
								c12.737,167.967,41.532,314.951,85.681,437.634C2226.14,2903.252,2228.121,2902.693,2230.101,2902.13z"/>
							<path style="fill:#FCFDFE;" d="M1371.75,2736.292l2.414-5.665c-245.257-104.526-519.917-48.311-707.143,17.252l2.038,5.815
								C855.256,2688.488,1128.31,2632.539,1371.75,2736.292z"/>
							<path style="fill:#FCFDFE;" d="M951.314,2293.923l5.531-2.708c-132.031-269.765-70.737-579.011-22.452-739.337l-5.897-1.778
								C879.951,1711.292,818.359,2022.267,951.314,2293.923z"/>
						</g>
					</g>
				</g>
			</g>
		</g>
		<g>
			<g>
				
					<linearGradient id="SVGID_00000137851202076625397010000003325479172647126692_" gradientUnits="userSpaceOnUse" x1="-4369.0649" y1="-2312.7202" x2="-3578.217" y2="2743.071" gradientTransform="matrix(0.676 -0.7369 0.7369 0.676 5118.1533 580.4587)">
					<stop  offset="0" style="stop-color:#AA80F9"/>
					<stop  offset="0.9964" style="stop-color:#6165D7"/>
				</linearGradient>
				<path style="fill:url(#SVGID_00000137851202076625397010000003325479172647126692_);" d="M1489.207,2916.039
					c-0.52,3.083-1.047,6.186-1.579,9.311c2.991,1.986,5.999,3.958,8.962,5.969
					C1494.071,2926.277,1491.615,2921.181,1489.207,2916.039z"/>
				
					<linearGradient id="SVGID_00000180328918603526382670000007832240032248740268_" gradientUnits="userSpaceOnUse" x1="-4246.4258" y1="-2331.9038" x2="-3455.5779" y2="2723.8872" gradientTransform="matrix(0.676 -0.7369 0.7369 0.676 5118.1533 580.4587)">
					<stop  offset="0" style="stop-color:#AA80F9"/>
					<stop  offset="0.9964" style="stop-color:#6165D7"/>
				</linearGradient>
				<path style="fill:url(#SVGID_00000180328918603526382670000007832240032248740268_);" d="M1778.888,2965.946
					c0.963,0.573,1.917,1.16,2.88,1.731c3.031,1.798,6.069,3.583,9.105,5.372
					C1802.567,2979.938,1818.197,2988.555,1778.888,2965.946z"/>
				
					<linearGradient id="SVGID_00000115494861500808246490000009674578630347142584_" gradientUnits="userSpaceOnUse" x1="-3617.5759" y1="-2452.7925" x2="-3052.3914" y2="1160.3611" gradientTransform="matrix(0.676 -0.7369 0.7369 0.676 5118.1533 580.4587)">
					<stop  offset="0" style="stop-color:#AA80F9"/>
					<stop  offset="0.9964" style="stop-color:#6165D7"/>
				</linearGradient>
				<path style="fill:url(#SVGID_00000115494861500808246490000009674578630347142584_);" d="M1926.254,2267.782
					c-4.286-24.795-74.549-67.967-74.135-248.187c0.888-385.871-309.506-1151.348-749.772-852.579
					c-252.673,171.466,8.32,542.033-90.825,818.865c-29.636,82.753-34.938,159.096-20.205,228.798
					c33.123,156.706,168.619,225.495,337.197,358.622c324.054,255.907,333.083,444.938,432.564,425.387
					C1903.092,2970.781,1980.93,2584.119,1926.254,2267.782z"/>
				<g>
					<defs>
						<path id="SVGID_00000096048036423257245160000009993558743525850772_" d="M1794.23,2274.859
							c4.328-94.704,57.666-164.867,57.888-261.305c0.888-385.871-309.506-1151.348-749.772-852.579
							c-252.673,171.466,8.32,542.033-90.825,818.865c-94.215,263.062,57.493,461.356,316.992,587.42
							c139.791,67.91,115.992,126.946,156.897,136.168C1657.423,2742.209,1783.244,2515.282,1794.23,2274.859z"/>
					</defs>
					<clipPath id="SVGID_00000069361979553352864390000002008691037638877882_">
						<use xlink:href="#SVGID_00000096048036423257245160000009993558743525850772_"  style="overflow:visible;"/>
					</clipPath>
					<g style="clip-path:url(#SVGID_00000069361979553352864390000002008691037638877882_);">
						<g>
							<path style="fill:#FCFDFE;" d="M2913.597,3117.623c-3.619-8.992-0.019-5.347-0.739-9.276
								c-1219.59-279.868-1584.845-855.242-1717.621-2071.23c-1.037,2.059-6.297-3.689-4.514,3.585
								c42.535,487.026,171.04,1000.913,451.749,1393.18C1937.588,2846.28,2450.337,2998.25,2913.597,3117.623z"/>
							<path style="fill:#FCFDFE;" d="M1437.159,3187.161c229.072-120.196,706.623-239.559,962.58-247.292
								c0.116-2.167,0.226-4.334,0.357-6.5c-255.976,7.738-736.899,128.068-966.038,248.318
								C1435.088,3183.513,1436.13,3185.334,1437.159,3187.161z"/>
							<path style="fill:#FCFDFE;" d="M2732.694,3074.983c0.249-4.392,1.314-6.232,2.588-5.498
								c-144.243-93.633-211.001-209.954-269.315-380.706c-42.757-125.204-60.658-311.026-48.663-452.462
								c-3.12-3.086-4.871-3.146-6.327-0.052c-10.909,142.019,5.007,328.509,48.87,454.232
								C2519.975,2862.835,2586.132,2980.458,2732.694,3074.983z"/>
							<path style="fill:#FCFDFE;" d="M1609.071,2384.668c1.204-1.676,2.391-3.361,3.589-5.043
								c-193.514-158.369-436.41-209.987-681.678-200.02c0.165,2.155,0.376,4.308,0.541,6.463
								C1175.196,2176.165,1416.794,2227.341,1609.071,2384.668z"/>
							<path style="fill:#FCFDFE;" d="M1331.841,1804.321c2.022-0.3,4.043-0.601,6.067-0.885
								c-25.033-259.504,73.817-513.109,222.221-722.274c-1.681-1.216-3.363-2.427-5.034-3.657
								C1405.854,1287.834,1306.362,1543.368,1331.841,1804.321z"/>
						</g>
					</g>
				</g>
			</g>
		</g>
		<g>
			<g>
				
					<linearGradient id="SVGID_00000027578260543247941080000017534270294257035149_" gradientUnits="userSpaceOnUse" x1="2312.0706" y1="1755.3297" x2="2369.2344" y2="750.8732">
					<stop  offset="0" style="stop-color:#FFC444"/>
					<stop  offset="0.9964" style="stop-color:#F36F56"/>
				</linearGradient>
				<polygon style="fill:url(#SVGID_00000027578260543247941080000017534270294257035149_);" points="2356.146,730.996 
					2388.794,670.24 2408.096,736.456 2452.663,683.815 2457.777,752.599 2512.315,710.374 2503.016,778.717 2565.141,748.754 
					2541.836,813.671 2608.833,797.279 2572.54,855.932 2641.481,853.828 2593.787,903.653 2661.659,915.928 2604.647,954.748 
					2668.484,980.867 2604.647,1006.986 2661.659,1045.806 2593.787,1058.081 2641.481,1107.907 2572.54,1105.802 
					2608.833,1164.455 2541.836,1148.063 2565.141,1212.98 2503.016,1183.017 2512.315,1251.36 2457.777,1209.135 
					2452.663,1277.919 2408.096,1225.278 2388.794,1291.495 2356.146,1230.738 2323.497,1291.495 2304.194,1225.278 
					2259.627,1277.919 2254.514,1209.135 2199.976,1251.36 2209.275,1183.017 2147.15,1212.98 2170.455,1148.063 2103.458,1164.455 
					2139.751,1105.802 2070.81,1107.907 2118.504,1058.081 2050.632,1045.806 2107.643,1006.986 2043.807,980.867 2107.643,954.748 
					2050.632,915.928 2118.504,903.653 2070.81,853.828 2139.751,855.932 2103.458,797.279 2170.455,813.671 2147.15,748.754 
					2209.275,778.717 2199.976,710.374 2254.514,752.599 2259.627,683.815 2304.194,736.456 2323.497,670.24 				"/>
				
					<linearGradient id="SVGID_00000158726691520330179390000004189510223181207451_" gradientUnits="userSpaceOnUse" x1="2330.8887" y1="1688.8051" x2="2383.7168" y2="760.5328" gradientTransform="matrix(1 0.0056 -0.0056 1 -10.0259 -5.4965)">
					<stop  offset="0" style="stop-color:#FFC444"/>
					<stop  offset="0.9964" style="stop-color:#F36F56"/>
				</linearGradient>
				<polygon style="fill:url(#SVGID_00000158726691520330179390000004189510223181207451_);" points="2582.353,1028.384 
					2643.564,1010.381 2587.289,980.314 2643.419,949.978 2582.123,932.269 2630.72,890.926 2567.081,886.347 2606.02,835.804 
					2542.82,844.557 2570.399,787.022 2510.399,808.724 2525.414,746.712 2471.238,780.415 2473.032,716.636 2427.047,760.866 
					2415.541,698.108 2379.756,750.932 2355.454,691.938 2331.434,751.048 2295.397,698.396 2284.193,761.208 2237.996,717.198 
					2240.094,780.968 2185.758,747.525 2201.069,809.464 2140.967,788.049 2168.822,845.452 2105.58,837.001 2144.761,887.358 
					2081.144,892.24 2129.939,933.351 2068.727,951.353 2125.002,981.42 2068.871,1011.756 2130.168,1029.465 2081.571,1070.808 
					2145.211,1075.387 2106.271,1125.93 2169.472,1117.177 2141.892,1174.712 2201.891,1153.01 2186.876,1215.022 
					2241.052,1181.319 2239.259,1245.098 2285.244,1200.868 2296.75,1263.626 2332.534,1210.802 2356.837,1269.796 
					2380.856,1210.686 2416.893,1263.339 2428.099,1200.527 2474.295,1244.536 2472.196,1180.767 2526.533,1214.209 
					2511.221,1152.27 2571.324,1173.685 2543.469,1116.282 2606.711,1124.733 2567.53,1074.376 2631.147,1069.494 				"/>
			</g>
			<g>
				
					<linearGradient id="SVGID_00000171681643280860860860000013385623047919726781_" gradientUnits="userSpaceOnUse" x1="2522.5166" y1="572.4937" x2="2163.1667" y2="1454.5364">
					<stop  offset="0" style="stop-color:#FCB148"/>
					<stop  offset="0.0521" style="stop-color:#FDBA46"/>
					<stop  offset="0.1424" style="stop-color:#FFC244"/>
					<stop  offset="0.3183" style="stop-color:#FFC444"/>
					<stop  offset="0.4849" style="stop-color:#FDB946"/>
					<stop  offset="0.7754" style="stop-color:#F99C4D"/>
					<stop  offset="0.8658" style="stop-color:#F8924F"/>
					<stop  offset="1" style="stop-color:#F8924F"/>
				</linearGradient>
				<path style="fill:url(#SVGID_00000171681643280860860860000013385623047919726781_);" d="M2605.205,980.867
					c0,127.422-95.709,232.508-219.157,247.276c-9.799,1.184-19.776,1.783-29.902,1.783c-137.548,0-249.059-111.511-249.059-249.059
					c0-62.649,23.125-119.895,61.316-163.653c45.663-52.332,112.844-85.406,187.743-85.406
					C2493.693,731.808,2605.205,843.319,2605.205,980.867z"/>
				
					<linearGradient id="SVGID_00000150812581438114216830000009285071413317961125_" gradientUnits="userSpaceOnUse" x1="2107.0862" y1="1023.5701" x2="2477.2112" y2="1023.5701">
					<stop  offset="0" style="stop-color:#FCB148"/>
					<stop  offset="0.0521" style="stop-color:#FDBA46"/>
					<stop  offset="0.1424" style="stop-color:#FFC244"/>
					<stop  offset="0.3183" style="stop-color:#FFC444"/>
					<stop  offset="0.4849" style="stop-color:#FDB946"/>
					<stop  offset="0.7754" style="stop-color:#F99C4D"/>
					<stop  offset="0.8658" style="stop-color:#F8924F"/>
					<stop  offset="1" style="stop-color:#F8924F"/>
				</linearGradient>
				<path style="opacity:0.2;fill:url(#SVGID_00000150812581438114216830000009285071413317961125_);" d="M2470.433,1127.738
					c-12.603,35.115-42.219,69.631-84.385,100.405c-9.799,1.184-19.776,1.783-29.902,1.783
					c-137.548,0-249.059-111.511-249.059-249.059c0-62.649,23.125-119.895,61.316-163.653c1.973,18.129,11.269,38.327,33.781,59.083
					c23.029,21.192,59.9,42.982,116.955,63.67C2455.298,989.36,2494.85,1059.645,2470.433,1127.738z"/>
				<circle style="opacity:0.3;fill:#FFFFFF;" cx="2356.146" cy="980.867" r="186.091"/>
			</g>
		</g>
		<g>
			<g>
				
					<linearGradient id="SVGID_00000035510624714761599200000005463714721709387398_" gradientUnits="userSpaceOnUse" x1="1784.0168" y1="1963.3384" x2="710.7297" y2="3845.1179">
					<stop  offset="0" style="stop-color:#FFC444"/>
					<stop  offset="0.9964" style="stop-color:#F36F56"/>
				</linearGradient>
				<path style="fill:url(#SVGID_00000035510624714761599200000005463714721709387398_);" d="M2344.247,2274.553l-1061.836,9.761
					l-26.453-60.791l-210.69,62.971l-400.698,3.683c-22.285,0.205-38.561,16.601-36.31,36.573l3.793,33.653
					c2.235,19.828,21.96,35.177,44.075,34.853l52.368-0.765c80.831,227.412,158.727,446.453,233.914,658.239
					c14.724,41.479,56.979,69.704,105.009,73.251c87.769,14.285,383.304,60.381,522.674,56.568
					c-1.274-22.336-5.26-50.771-11.028-82.743c172.211-9.197,341.248-18.224,507.195-27.087
					c49.278-2.632,91.355-35.349,101.591-80.305c46.135-202.638,93.335-409.478,141.646-621.318l34.342-0.502
					c18.395-0.269,33.373-14.707,33.49-32.765l0.2-30.639C2377.646,2289.013,2362.761,2274.383,2344.247,2274.553z"/>
				
					<linearGradient id="SVGID_00000055690220147999710180000010686365537725182646_" gradientUnits="userSpaceOnUse" x1="1007.4067" y1="2047.1783" x2="633.3016" y2="2703.0916">
					<stop  offset="0" style="stop-color:#FFC444"/>
					<stop  offset="0.9964" style="stop-color:#F36F56"/>
				</linearGradient>
				<path style="fill:url(#SVGID_00000055690220147999710180000010686365537725182646_);" d="M630.361,2292.483l499.376-180.272
					l10.329,135.087l-486.915,147.872c0,0-28.437,0.639-37.789-23.549c-9.389-24.284-7.612-49.392-7.612-49.392
					S608.041,2300.54,630.361,2292.483z"/>
				
					<linearGradient id="SVGID_00000165939976311801586070000015000871528992290993_" gradientUnits="userSpaceOnUse" x1="1000.0651" y1="2047.9199" x2="889.7752" y2="2475.5337">
					<stop  offset="0" style="stop-color:#FFC444"/>
					<stop  offset="0.9964" style="stop-color:#F36F56"/>
				</linearGradient>
				<polygon style="fill:url(#SVGID_00000165939976311801586070000015000871528992290993_);" points="653.151,2395.169 
					708.495,2394.49 1206.116,2246.824 1140.066,2247.297 				"/>
				<g>
					
						<linearGradient id="SVGID_00000120554759682672226180000002481176710996926910_" gradientUnits="userSpaceOnUse" x1="2850.4907" y1="475.2082" x2="2303.9063" y2="1841.6705">
						<stop  offset="0" style="stop-color:#FFC444"/>
						<stop  offset="0.9964" style="stop-color:#F36F56"/>
					</linearGradient>
					<path style="fill:url(#SVGID_00000120554759682672226180000002481176710996926910_);" d="M2991.985,2199.291
						c-68.011,281.293-133.95,553.956-197.885,818.403c-7.596,31.416-25.892,58.309-49.991,76.399
						c-18.779,14.085-41.082,22.854-64.593,24.2c-351.133,20.334-716.732,41.497-1097.694,63.592
						c-60.897,3.521-116.48-35.179-133.327-93.592c-64.041-222.293-130.532-453.115-199.613-692.98
						c-0.034-0.034-0.034-0.104-0.034-0.138c-17.779-61.624-35.698-123.834-53.787-186.666
						C1834.67,2205.229,2432.297,2202.156,2991.985,2199.291z"/>
					
						<linearGradient id="SVGID_00000113336987133571679160000007957245570461900166_" gradientUnits="userSpaceOnUse" x1="2016.9906" y1="1209.7058" x2="2212.7747" y2="4259.8418">
						<stop  offset="0" style="stop-color:#FFC444"/>
						<stop  offset="0.9964" style="stop-color:#F36F56"/>
					</linearGradient>
					<path style="fill:url(#SVGID_00000113336987133571679160000007957245570461900166_);" d="M3057.77,2192.003
						c-1.193,22.985-18.457,41.682-38.607,41.827l-1871.595,13.414c-24.881,0.178-46.734-20.375-48.757-45.988l-3.373-42.418
						c-2.042-25.847,16.712-46.579,41.833-46.579h1887.932c20.307,0,35.757,18.552,34.554,41.725L3057.77,2192.003z"/>
					
						<linearGradient id="SVGID_00000021095582822372634810000007128051398526218686_" gradientUnits="userSpaceOnUse" x1="2259.4006" y1="2086.9307" x2="2025.7942" y2="2670.9473">
						<stop  offset="0" style="stop-color:#FFC444"/>
						<stop  offset="0.9964" style="stop-color:#F36F56"/>
					</linearGradient>
					<path style="opacity:0.1;fill:url(#SVGID_00000021095582822372634810000007128051398526218686_);" d="M2744.108,3094.093
						c-18.779,14.085-41.082,22.854-64.593,24.2c-351.133,20.334-716.732,41.497-1097.694,63.592
						c-60.897,3.521-116.669-35.179-133.516-93.592c-64.041-222.293-130.757-453.115-199.803-692.98v-0.069
						c3.452,6.042,205.74,406.094,351.945,376.405c147.309-29.931,287.809-16.122,406.327,141.544
						c118.518,157.667,364.37-17.02,496.938,10.495C2592.298,2942.053,2670.022,3037.544,2744.108,3094.093z"/>
				</g>
			</g>
			<g>
				
					<linearGradient id="SVGID_00000046314160078780293370000005021982946412753541_" gradientUnits="userSpaceOnUse" x1="2046.1001" y1="1385.2081" x2="1826.8352" y2="2235.3376">
					<stop  offset="0" style="stop-color:#FFC444"/>
					<stop  offset="0.9964" style="stop-color:#F36F56"/>
				</linearGradient>
				<path style="fill:url(#SVGID_00000046314160078780293370000005021982946412753541_);" d="M2360.26,2349.184l-6.867,0.472
					c-27.647,2.045-51.61-20.968-53.47-51.416l-28.647-470.218c-6.795-111.014-58.477-210.935-141.775-274.114
					c-14.736-11.172-30.114-20.928-45.959-29.189c-73.712-38.592-157.798-45.712-237.411-18.922l-175.286,59.008
					c-152.934,51.455-249.931,215.013-230.618,389.639l17.097,157.814h-107.689l-15.916-143.574
					c-25.607-231.509,103.006-448.772,305.724-517.025l175.288-58.867c128.29-43.194,265.201-19.835,375.644,63.878
					c110.48,83.713,178.971,216.203,187.947,363.448l28.686,470.236C2408.865,2320.764,2387.906,2347.138,2360.26,2349.184z"/>
				
					<linearGradient id="SVGID_00000086650687859882949500000000154629200184452249_" gradientUnits="userSpaceOnUse" x1="1799.2114" y1="1426.287" x2="1607.7584" y2="2168.585">
					<stop  offset="0" style="stop-color:#FFC444"/>
					<stop  offset="0.9964" style="stop-color:#F36F56"/>
				</linearGradient>
				<path style="opacity:0.3;fill:url(#SVGID_00000086650687859882949500000000154629200184452249_);" d="M2083.542,1524.719
					c-73.712-38.592-157.798-45.712-237.411-18.922l-175.286,59.008c-152.934,51.455-249.931,215.013-230.618,389.639
					l17.097,157.814h-67.954c0,0-39.342-74.18-14.306-170.56c25.036-96.38,17.883-86.264,25.036-162.974
					c7.153-76.711,118.562-244.311,214.593-235.893c96.031,8.419,216.381-102.211,329.043-78.607
					C2054.643,1487.473,2082.719,1523.617,2083.542,1524.719z"/>
			</g>
			
				<linearGradient id="SVGID_00000008866914406539341860000005516019861564859789_" gradientUnits="userSpaceOnUse" x1="2361.3884" y1="2266.5728" x2="2332.2969" y2="2379.3665">
				<stop  offset="0" style="stop-color:#FFC444"/>
				<stop  offset="0.9964" style="stop-color:#F36F56"/>
			</linearGradient>
			
				<ellipse style="fill:url(#SVGID_00000008866914406539341860000005516019861564859789_);" cx="2356.379" cy="2285.994" rx="18.33" ry="20.161"/>
		</g>
		<g>
			<defs>
				<path id="SVGID_00000122712775596269919590000008822855575279097747_" d="M1256.899,2111.685c0,0-110.961-17.11-177.915,18.847
					s-122.925-203.935-122.925-203.935s231.54-263.847,531.174-247.519s556.747,199.98,556.747,199.98l-78.638,190.739
					L1256.899,2111.685z"/>
			</defs>
			<clipPath id="SVGID_00000170280718138047952400000008092859015634320528_">
				<use xlink:href="#SVGID_00000122712775596269919590000008822855575279097747_"  style="overflow:visible;"/>
			</clipPath>
			<g style="clip-path:url(#SVGID_00000170280718138047952400000008092859015634320528_);">
				
					<linearGradient id="SVGID_00000161609653458843960250000005439460460453073289_" gradientUnits="userSpaceOnUse" x1="1564.8668" y1="1833.7476" x2="1354.999" y2="2397.0779">
					<stop  offset="0" style="stop-color:#FFC444"/>
					<stop  offset="0.9964" style="stop-color:#F36F56"/>
				</linearGradient>
				<path style="fill:url(#SVGID_00000161609653458843960250000005439460460453073289_);" d="M1156.023,2125.893
					c-71.572-23.109-98.503-42.162-109.56-69.619c-31.757-78.858,75.749-206.371,183.384-268.571
					c99.086-57.259,193.11-56.181,325.06-54.669c127.883,1.465,219.561,2.516,301.417,66.588
					c61.492,48.132,129.71,141.431,103.099,211.107c-15.081,39.485-56.395,60.336-152.633,88.544
					C1430.51,2209.562,1205.52,2141.874,1156.023,2125.893z"/>
				
					<linearGradient id="SVGID_00000169522694311525751580000000795016107540324018_" gradientUnits="userSpaceOnUse" x1="1523.5934" y1="2274.5308" x2="1494.1381" y2="1968.9329">
					<stop  offset="0" style="stop-color:#FFC444"/>
					<stop  offset="0.9964" style="stop-color:#F36F56"/>
				</linearGradient>
				<path style="fill:url(#SVGID_00000169522694311525751580000000795016107540324018_);" d="M1310.689,1968.121
					c-186.949,18.615-228.846,76.595-225.074,128.899c16.606,9.541,39.282,18.824,70.408,28.874
					c49.497,15.981,274.487,83.669,650.767-26.62c45.747-13.408,79.062-25.157,103.07-38.032
					C1980.034,1858.447,1630.48,1936.279,1310.689,1968.121z"/>
				
					<linearGradient id="SVGID_00000178193896388107892490000005884635505384478385_" gradientUnits="userSpaceOnUse" x1="1271.0251" y1="2242.2354" x2="1278.3893" y2="1737.8118">
					<stop  offset="0" style="stop-color:#FFC444"/>
					<stop  offset="0.9964" style="stop-color:#F36F56"/>
				</linearGradient>
				<path style="fill:url(#SVGID_00000178193896388107892490000005884635505384478385_);" d="M1285.191,1786.53
					c-18.829,5.287-44.943,19.069-42.826,28.87c1.948,9.022,28.056,15.787,46.917,6.314c16.689-8.381,27.142-29.193,22.093-36.003
					C1307.364,1780.304,1293.852,1784.098,1285.191,1786.53z"/>
				
					<linearGradient id="SVGID_00000163044322236767840870000001029782726966263435_" gradientUnits="userSpaceOnUse" x1="1359.7971" y1="2243.5305" x2="1367.1613" y2="1739.1086">
					<stop  offset="0" style="stop-color:#FFC444"/>
					<stop  offset="0.9964" style="stop-color:#F36F56"/>
				</linearGradient>
				<path style="fill:url(#SVGID_00000163044322236767840870000001029782726966263435_);" d="M1371.924,1761.164
					c-14.422,2.063-33.491,11.343-32.729,21.274c0.632,8.224,14.797,16.04,27.002,14.728c18.491-1.987,31.516-24.822,27.002-32.73
					C1389.866,1758.598,1376.729,1760.477,1371.924,1761.164z"/>
				
					<linearGradient id="SVGID_00000012446239953760526290000011615336470530605712_" gradientUnits="userSpaceOnUse" x1="1466.6317" y1="2245.0894" x2="1473.9958" y2="1740.6665">
					<stop  offset="0" style="stop-color:#FFC444"/>
					<stop  offset="0.9964" style="stop-color:#F36F56"/>
				</linearGradient>
				<path style="fill:url(#SVGID_00000012446239953760526290000011615336470530605712_);" d="M1468.477,1743.981
					c-8.487,0.731-37.746,3.25-38.457,10.637c-0.653,6.786,22.751,18.039,45.668,16.479c21.906-1.491,43.273-14.683,41.884-21.389
					C1515.945,1741.855,1483.062,1742.725,1468.477,1743.981z"/>
				
					<linearGradient id="SVGID_00000030485229137656717180000006499316456048468918_" gradientUnits="userSpaceOnUse" x1="1540.4069" y1="2246.1667" x2="1547.7709" y2="1741.7445">
					<stop  offset="0" style="stop-color:#FFC444"/>
					<stop  offset="0.9964" style="stop-color:#F36F56"/>
				</linearGradient>
				<path style="fill:url(#SVGID_00000030485229137656717180000006499316456048468918_);" d="M1549.483,1752.164
					c-9.859-1.11-17.25,10.07-15.547,13.91c2.372,5.347,25.407,3.288,27.166-3.148
					C1562.128,1759.176,1556.207,1752.921,1549.483,1752.164z"/>
				
					<linearGradient id="SVGID_00000090266657819858027200000016983434710318764178_" gradientUnits="userSpaceOnUse" x1="1615.1667" y1="2247.2605" x2="1622.5309" y2="1742.8365">
					<stop  offset="0" style="stop-color:#FFC444"/>
					<stop  offset="0.9964" style="stop-color:#F36F56"/>
				</linearGradient>
				<path style="fill:url(#SVGID_00000090266657819858027200000016983434710318764178_);" d="M1637.853,1747.254
					c-18.742-12.996-45.499-0.873-46.64,8.182c-1.671,13.262,49.46,36.923,59.732,26.184
					C1656.819,1775.48,1650.993,1756.365,1637.853,1747.254z"/>
				
					<linearGradient id="SVGID_00000090975598837909951000000001978985611586940803_" gradientUnits="userSpaceOnUse" x1="1690.9617" y1="2248.3665" x2="1698.3257" y2="1743.9423">
					<stop  offset="0" style="stop-color:#FFC444"/>
					<stop  offset="0.9964" style="stop-color:#F36F56"/>
				</linearGradient>
				<path style="fill:url(#SVGID_00000090975598837909951000000001978985611586940803_);" d="M1695.131,1756.255
					c-5.502,0.61-10.774,7.64-9.819,13.092c1.621,9.253,21.001,12.91,24.547,8.182
					C1713.406,1772.801,1704.468,1755.22,1695.131,1756.255z"/>
				
					<linearGradient id="SVGID_00000036237738659287272010000007430785888828652175_" gradientUnits="userSpaceOnUse" x1="1737.9264" y1="2249.051" x2="1745.2904" y2="1744.6277">
					<stop  offset="0" style="stop-color:#FFC444"/>
					<stop  offset="0.9964" style="stop-color:#F36F56"/>
				</linearGradient>
				<path style="fill:url(#SVGID_00000036237738659287272010000007430785888828652175_);" d="M1749.952,1756.255
					c-9.27-3.939-19.393,2.7-19.638,7.364c-0.381,7.262,22.776,17.436,27.821,12.274
					C1761.413,1772.538,1759.422,1760.278,1749.952,1756.255z"/>
				
					<linearGradient id="SVGID_00000058570173697548810930000009402503670694363266_" gradientUnits="userSpaceOnUse" x1="1203.3575" y1="2241.2461" x2="1210.7216" y2="1736.8259">
					<stop  offset="0" style="stop-color:#FFC444"/>
					<stop  offset="0.9964" style="stop-color:#F36F56"/>
				</linearGradient>
				<path style="fill:url(#SVGID_00000058570173697548810930000009402503670694363266_);" d="M1198.457,1818.442
					c-0.887-5.774,14.392-15.216,19.638-11.456c3.506,2.512,3.988,11.961-1.636,16.365
					C1209.727,1828.621,1199.133,1822.84,1198.457,1818.442z"/>
				
					<linearGradient id="SVGID_00000079467396984626457870000017849986579861075843_" gradientUnits="userSpaceOnUse" x1="1426.7968" y1="2244.5085" x2="1434.1608" y2="1740.0851">
					<stop  offset="0" style="stop-color:#FFC444"/>
					<stop  offset="0.9964" style="stop-color:#F36F56"/>
				</linearGradient>
				<path style="fill:url(#SVGID_00000079467396984626457870000017849986579861075843_);" d="M1426.747,1793.076
					c-5.632,2.087-9.136,12.09-5.728,18.001c4.971,8.625,23.067,5.797,25.366,0
					C1448.848,1804.864,1435.279,1789.914,1426.747,1793.076z"/>
				
					<linearGradient id="SVGID_00000120557642947864872720000006080070693176190653_" gradientUnits="userSpaceOnUse" x1="1483.2297" y1="1903.6963" x2="1512.6849" y2="2139.3384">
					<stop  offset="0" style="stop-color:#AB316D"/>
					<stop  offset="1" style="stop-color:#792D3D"/>
				</linearGradient>
				<path style="fill:url(#SVGID_00000120557642947864872720000006080070693176190653_);" d="M1180.455,2180.105
					c-27.356-5.505-69.079-15.072-75.192-39.702c-9.211-37.113,66.245-93.056,132.754-121.567
					c66.799-28.636,90.955-15.189,260.878-36.264c51.487-6.385,82.536-11.746,165.223-21.038
					c80.307-9.024,134.552-13.354,189.751,14.01c17.515,8.683,48.912,24.755,52.498,51.373
					c4.255,31.594-33.048,60.401-50.861,73.818C1711.188,2209.435,1402.932,2224.873,1180.455,2180.105z"/>
				
					<linearGradient id="SVGID_00000091014293771430653700000011856685187069766079_" gradientUnits="userSpaceOnUse" x1="1498.5863" y1="1973.8435" x2="1520.7737" y2="2151.3433">
					<stop  offset="0" style="stop-color:#AB316D"/>
					<stop  offset="1" style="stop-color:#792D3D"/>
				</linearGradient>
				<path style="opacity:0.3;fill:url(#SVGID_00000091014293771430653700000011856685187069766079_);" d="M1198.755,2179.866
					c-26.666-3.905-67.338-10.691-73.297-28.161c-8.979-26.324,64.576-66.005,129.409-86.228
					c65.116-20.311,88.662-10.774,254.304-25.722c50.19-4.53,80.456-8.332,161.06-14.922c78.284-6.401,131.162-9.473,184.97,9.937
					c17.074,6.159,47.68,17.559,51.175,36.439c4.148,22.41-32.215,42.843-49.58,52.359
					C1716.115,2200.67,1415.626,2211.62,1198.755,2179.866z"/>
				
					<linearGradient id="SVGID_00000108310756453028824790000007609470684302128022_" gradientUnits="userSpaceOnUse" x1="792.1735" y1="2045.2648" x2="2983.1997" y2="2189.9932">
					<stop  offset="0" style="stop-color:#6BFFD4"/>
					<stop  offset="1" style="stop-color:#25767A"/>
				</linearGradient>
				<path style="fill:url(#SVGID_00000108310756453028824790000007609470684302128022_);" d="M1487.296,2140.011
					c-1.818-17.168,35.814-35.688,49.943-41.43c42.359-17.216,57.456,5.636,110.433-10.938c20.087-6.284,33.724-14.515,60.55-15.547
					c17.717-0.681,23.868,2.443,36.821,3.273c46.036,2.949,62.235-30.504,103.099-38.457
					c50.289-9.787,110.683,24.347,111.281,50.731c0.555,24.518-50.486,44.092-82.143,55.919
					C1702.137,2208.998,1491.458,2179.316,1487.296,2140.011z"/>
				
					<linearGradient id="SVGID_00000128473486098532502220000012410375222673885340_" gradientUnits="userSpaceOnUse" x1="1482.5077" y1="2076.7139" x2="1548.7819" y2="2533.272">
					<stop  offset="0" style="stop-color:#FFC444"/>
					<stop  offset="0.9964" style="stop-color:#F36F56"/>
				</linearGradient>
				<path style="fill:url(#SVGID_00000128473486098532502220000012410375222673885340_);" d="M1103.541,2378.938
					c-22.35-13.68-33.773-34.223-33.773-34.223c-14.133-25.418-14.787-57.472-4.685-81.149
					c16.559-38.812,61.236-53.286,86.067-60.948c184.874-57.044,293.765-72.518,293.765-72.518
					c156.291-22.209,213.898-29.533,298.478-31.635c130.501-3.242,174.796,9.685,196.638,41.553
					c19.262,28.103,22.045,72.366,5.045,105.2c-42.547,82.176-176.342,29.649-417.684,78.079
					C1393.967,2350.072,1169.581,2419.359,1103.541,2378.938z"/>
				
					<linearGradient id="SVGID_00000008850486518690557010000003765120323639475603_" gradientUnits="userSpaceOnUse" x1="2185.5845" y1="1917.9535" x2="-159.1052" y2="2530.3123">
					<stop  offset="0" style="stop-color:#6BFFD4"/>
					<stop  offset="1" style="stop-color:#25767A"/>
				</linearGradient>
				<path style="fill:url(#SVGID_00000008850486518690557010000003765120323639475603_);" d="M1149.98,2141.766
					c-22.161,11.881-26.303,18.704-43.959,30.207c-36.436,23.737-51.695,16.113-63.849,35.134
					c-7.987,12.501-11.628,31.806-3.273,42.549c11.526,14.82,41.837,8.145,63.999,3.003c60.049-13.932,67.82-36.312,126.591-56.914
					c49.172-17.238,97.003-20.246,102.341-20.549c33.355-1.892,43.308-0.902,55.981-2.078c0,0,9.583-1.186,18.479-2.832
					c44.618-8.252,119.128-49.001,114.929-59.487c-3.556-8.881-54.393,26.844-113.292,7.938
					c-14.907-4.785-40.769-15.39-73.642-16.365c-45.262-1.342-46.681,23.223-97.426,22.597c-17.708-0.219-33.937-3.412-57.5,3.84
					C1167.372,2132.498,1157.848,2137.548,1149.98,2141.766z"/>
				<g style="opacity:0.3;">
					
						<linearGradient id="SVGID_00000176035862278212574750000007534266464402354317_" gradientUnits="userSpaceOnUse" x1="1482.3728" y1="2076.7332" x2="1548.6471" y2="2533.2917">
						<stop  offset="0" style="stop-color:#FFC444"/>
						<stop  offset="0.9964" style="stop-color:#F36F56"/>
					</linearGradient>
					<path style="fill:url(#SVGID_00000176035862278212574750000007534266464402354317_);" d="M1875.962,2207.925
						c-40.543,0.147-69.745-13.821-83.461-19.638c-121.514-51.532-321.387-11.93-448.397,49.095
						c-111.501,53.573-144.896,113.112-224.199,101.462c-22.616-3.322-42.603-11.533-59.963-21.852
						c1.792,9.614,5.008,19.056,9.826,27.722c0,0,11.423,20.544,33.773,34.223c66.041,40.42,290.427-28.867,423.85-55.641
						c241.343-48.43,375.138,4.097,417.684-78.079c8.732-16.864,12.208-36.737,10.949-55.893
						C1933.004,2199.973,1906.022,2207.816,1875.962,2207.925z"/>
				</g>
			</g>
		</g>
		<g>
			
				<linearGradient id="SVGID_00000017475478906945698980000008014687709608395193_" gradientUnits="userSpaceOnUse" x1="1242.0314" y1="2389.1028" x2="2278.063" y2="2389.1028">
				<stop  offset="0" style="stop-color:#FFC444"/>
				<stop  offset="0.9964" style="stop-color:#F36F56"/>
			</linearGradient>
			<path style="opacity:0.3;fill:url(#SVGID_00000017475478906945698980000008014687709608395193_);" d="M1242.031,2112.21
				l721.491,580.058l314.541-559.594C2278.063,2132.674,1760.047,2042.888,1242.031,2112.21z"/>
			<path style="fill:#FFFFFF;" d="M2288.578,2111.671L2158.53,2343.01l-184.526,328.279l-717.111-559.618
				c41.6-9.114,83.268-16.744,124.731-23.027c36.871-5.627,73.533-10.219,109.852-13.913c281.985-28.723,541.322-2.9,683.522,17.607
				C2246.667,2102.661,2288.578,2111.671,2288.578,2111.671z"/>
			<g>
				<defs>
					<path id="XMLID_1_" d="M2174.986,2092.34l-237.699,416.384l-555.68-420.092
						C1704.73,2039.274,2014.49,2069.183,2174.986,2092.34z"/>
				</defs>
				
					<linearGradient id="XMLID_00000018956016869419401970000014685536439268146841_" gradientUnits="userSpaceOnUse" x1="1381.6068" y1="2285.3337" x2="2174.9856" y2="2285.3337">
					<stop  offset="0" style="stop-color:#FF9085"/>
					<stop  offset="1" style="stop-color:#FB6FBB"/>
				</linearGradient>
				
					<use xlink:href="#XMLID_1_"  style="overflow:visible;fill:url(#XMLID_00000018956016869419401970000014685536439268146841_);"/>
				<clipPath id="XMLID_00000141439584391041416830000004810416860267606962_">
					<use xlink:href="#XMLID_1_"  style="overflow:visible;"/>
				</clipPath>
				<g style="opacity:0.5;clip-path:url(#XMLID_00000141439584391041416830000004810416860267606962_);">
					
						<rect x="1526.689" y="1609.879" transform="matrix(0.5366 -0.8438 0.8438 0.5366 -689.4589 2170.6567)" style="fill:#FFFFFF;" width="209.888" height="206.39"/>
					
						<rect x="1588.221" y="1897.74" transform="matrix(0.5366 -0.8438 0.8438 0.5366 -903.852 2355.9729)" style="fill:#FFFFFF;" width="209.888" height="206.39"/>
					
						<rect x="1875.007" y="1831.379" transform="matrix(0.5366 -0.8438 0.8438 0.5366 -714.9592 2567.2212)" style="fill:#FFFFFF;" width="209.888" height="206.39"/>
					
						<rect x="1301.434" y="1964.101" transform="matrix(0.5366 -0.8438 0.8438 0.5366 -1092.7448 2144.7244)" style="fill:#FFFFFF;" width="209.888" height="206.39"/>
					
						<rect x="1649.752" y="2185.601" transform="matrix(0.5366 -0.8438 0.8438 0.5366 -1118.245 2541.29)" style="fill:#FFFFFF;" width="209.888" height="206.39"/>
					
						<rect x="1936.539" y="2119.24" transform="matrix(0.5366 -0.8438 0.8438 0.5366 -929.3523 2752.5374)" style="fill:#FFFFFF;" width="209.888" height="206.39"/>
					
						<rect x="2223.325" y="2052.879" transform="matrix(0.5366 -0.8438 0.8438 0.5366 -740.4594 2963.7861)" style="fill:#FFFFFF;" width="209.888" height="206.39"/>
					
						<rect x="1998.07" y="2407.101" transform="matrix(0.5366 -0.8438 0.8438 0.5366 -1143.7455 2937.8523)" style="fill:#FFFFFF;" width="209.888" height="206.39"/>
				</g>
			</g>
			
				<linearGradient id="SVGID_00000010281998738691457690000009195321338974865055_" gradientUnits="userSpaceOnUse" x1="1256.8928" y1="2373.0107" x2="2158.5303" y2="2373.0107">
				<stop  offset="0" style="stop-color:#FF9085"/>
				<stop  offset="1" style="stop-color:#FB6FBB"/>
			</linearGradient>
			<path style="opacity:0.2;fill:url(#SVGID_00000010281998738691457690000009195321338974865055_);" d="M2158.53,2343.01
				l-184.526,328.279l-717.111-559.618c41.6-9.114,83.268-16.744,124.731-23.027c36.871-5.627,73.533-10.219,109.852-13.913
				c43.43,13.222,88,39.529,105.71,91.624c38.977,114.72,118.518,177.207,301.49,139.784
				C2033.211,2278.659,2119.208,2285.081,2158.53,2343.01z"/>
		</g>
		<g style="opacity:0.5;">
			<g>
				
					<linearGradient id="SVGID_00000031168388618238015540000009380402328172755097_" gradientUnits="userSpaceOnUse" x1="2611.2605" y1="2712.1985" x2="2805.9917" y2="2712.1985">
					<stop  offset="0" style="stop-color:#FFC444"/>
					<stop  offset="0.9964" style="stop-color:#F36F56"/>
				</linearGradient>
				<path style="fill:url(#SVGID_00000031168388618238015540000009380402328172755097_);" d="M2616.51,3008.959
					c-0.523,0-1.055-0.079-1.582-0.246c-2.764-0.873-4.294-3.821-3.423-6.584l184.233-583.023c0.875-2.762,3.813-4.298,6.586-3.422
					c2.764,0.873,4.294,3.821,3.423,6.584l-184.233,583.023C2620.807,3007.529,2618.74,3008.959,2616.51,3008.959z"/>
			</g>
			<g>
				
					<linearGradient id="SVGID_00000153667607645118752140000007436036799131542194_" gradientUnits="userSpaceOnUse" x1="2453.2598" y1="2826.1802" x2="2572.2009" y2="2826.1802">
					<stop  offset="0" style="stop-color:#FFC444"/>
					<stop  offset="0.9964" style="stop-color:#F36F56"/>
				</linearGradient>
				<path style="fill:url(#SVGID_00000153667607645118752140000007436036799131542194_);" d="M2458.513,3015.956
					c-0.492,0-0.987-0.069-1.483-0.214c-2.781-0.817-4.373-3.733-3.556-6.514l108.442-369.054c0.82-2.782,3.737-4.37,6.515-3.555
					c2.781,0.817,4.373,3.733,3.556,6.514l-108.442,369.054C2462.872,3014.472,2460.781,3015.956,2458.513,3015.956z"/>
			</g>
			<g>
				
					<linearGradient id="SVGID_00000090992930886627819800000003394242509337355957_" gradientUnits="userSpaceOnUse" x1="2385.0483" y1="2766.4695" x2="2762.8472" y2="2766.4695">
					<stop  offset="0" style="stop-color:#FFC444"/>
					<stop  offset="0.9964" style="stop-color:#F36F56"/>
				</linearGradient>
				<path style="fill:url(#SVGID_00000090992930886627819800000003394242509337355957_);" d="M2757.6,2771.648h-367.305
					c-2.897,0-5.247-2.281-5.247-5.178s2.35-5.178,5.247-5.178H2757.6c2.897,0,5.247,2.281,5.247,5.178
					S2760.497,2771.648,2757.6,2771.648z"/>
			</g>
			<g>
				
					<linearGradient id="SVGID_00000097500969969130669900000014772642670134884262_" gradientUnits="userSpaceOnUse" x1="2357.0632" y1="2908.0139" x2="2734.8621" y2="2908.0139">
					<stop  offset="0" style="stop-color:#FFC444"/>
					<stop  offset="0.9964" style="stop-color:#F36F56"/>
				</linearGradient>
				<path style="fill:url(#SVGID_00000097500969969130669900000014772642670134884262_);" d="M2729.615,2913.192H2362.31
					c-2.897,0-5.247-2.281-5.247-5.178s2.35-5.178,5.247-5.178h367.305c2.897,0,5.247,2.281,5.247,5.178
					S2732.512,2913.192,2729.615,2913.192z"/>
			</g>
		</g>
		<g style="opacity:0.5;">
			<g>
				
					<linearGradient id="SVGID_00000028299648435216766490000008893660816406570889_" gradientUnits="userSpaceOnUse" x1="868.5922" y1="2799.6523" x2="1045.2622" y2="2799.6523">
					<stop  offset="0" style="stop-color:#FFC444"/>
					<stop  offset="0.9964" style="stop-color:#F36F56"/>
				</linearGradient>
				<path style="fill:url(#SVGID_00000028299648435216766490000008893660816406570889_);" d="M1040.014,3027.616
					c-2.126,0-4.128-1.304-4.916-3.415l-166.174-445.428c-1.013-2.716,0.367-5.738,3.081-6.751c2.714-1.011,5.736,0.366,6.75,3.082
					l166.174,445.429c1.013,2.716-0.367,5.737-3.081,6.75C1041.244,3027.508,1040.624,3027.616,1040.014,3027.616z"/>
			</g>
			<g>
				
					<linearGradient id="SVGID_00000076586741220044539230000014284441931419591839_" gradientUnits="userSpaceOnUse" x1="1090.0371" y1="2873.988" x2="1211.3641" y2="2873.988">
					<stop  offset="0" style="stop-color:#FFC444"/>
					<stop  offset="0.9964" style="stop-color:#F36F56"/>
				</linearGradient>
				<path style="fill:url(#SVGID_00000076586741220044539230000014284441931419591839_);" d="M1206.116,3027.616
					c-2.126,0-4.128-1.303-4.916-3.413l-110.83-296.758c-1.013-2.715,0.365-5.738,3.08-6.752c2.716-1.012,5.737,0.365,6.752,3.08
					l110.83,296.759c1.013,2.715-0.366,5.738-3.08,6.752C1207.347,3027.508,1206.725,3027.616,1206.116,3027.616z"/>
			</g>
			<g>
				
					<linearGradient id="SVGID_00000003809149273669250300000006278399058014122650_" gradientUnits="userSpaceOnUse" x1="908.8334" y1="2804.7534" x2="1262.146" y2="2804.7534">
					<stop  offset="0" style="stop-color:#FFC444"/>
					<stop  offset="0.9964" style="stop-color:#F36F56"/>
				</linearGradient>
				<path style="fill:url(#SVGID_00000003809149273669250300000006278399058014122650_);" d="M914.074,2831.428
					c-2.608,0-4.868-1.942-5.199-4.597c-0.36-2.875,1.679-5.498,4.555-5.858l342.818-42.852c2.868-0.363,5.498,1.681,5.857,4.556
					c0.36,2.875-1.679,5.498-4.555,5.858l-342.818,42.852C914.511,2831.414,914.291,2831.428,914.074,2831.428z"/>
			</g>
			<g>
				
					<linearGradient id="SVGID_00000079455840571993570370000005144338005842887614_" gradientUnits="userSpaceOnUse" x1="964.8041" y1="2962.468" x2="1300.6251" y2="2962.468">
					<stop  offset="0" style="stop-color:#FFC444"/>
					<stop  offset="0.9964" style="stop-color:#F36F56"/>
				</linearGradient>
				<path style="fill:url(#SVGID_00000079455840571993570370000005144338005842887614_);" d="M970.049,2971.882
					c-2.84,0-5.175-2.531-5.244-5.385c-0.07-2.898,2.222-5.435,5.119-5.505l325.327-7.937c2.859-0.048,5.302,2.189,5.372,5.085
					c0.07,2.898-2.222,5.552-5.119,5.622l-325.327,8.12C970.135,2971.882,970.092,2971.882,970.049,2971.882z"/>
			</g>
		</g>
		<g>
			
				<linearGradient id="SVGID_00000168810093233248256250000015673757622237241497_" gradientUnits="userSpaceOnUse" x1="1023.7139" y1="681.8905" x2="1393.8007" y2="1276.8926">
				<stop  offset="0" style="stop-color:#311944"/>
				<stop  offset="1" style="stop-color:#893976"/>
			</linearGradient>
			<path style="fill:url(#SVGID_00000168810093233248256250000015673757622237241497_);" d="M1605.671,786.114l-692.695-37.305
				c-57.056-3.073-103.552,38.929-103.552,93.831v379.556c0,54.901,46.496,100.553,103.552,101.959l226.463,5.579l105.683,124.891
				c6.372,7.53,17.523,8.755,25.378,2.79l0,0l101.638-121.947l233.533,5.753c52.812,1.301,95.409-40.151,95.409-92.579V886.182
				C1701.08,833.754,1658.483,788.958,1605.671,786.114z"/>
			
				<linearGradient id="SVGID_00000016768503030864667210000009391480513050238626_" gradientUnits="userSpaceOnUse" x1="1037.5011" y1="670.8607" x2="1407.5879" y2="1265.8628">
				<stop  offset="0" style="stop-color:#FF9085"/>
				<stop  offset="1" style="stop-color:#FB6FBB"/>
			</linearGradient>
			<path style="fill:url(#SVGID_00000016768503030864667210000009391480513050238626_);" d="M1619.458,775.084l-692.695-37.306
				c-57.056-3.072-103.552,38.93-103.552,93.831v379.556c0,54.901,46.496,100.553,103.552,101.959l226.463,5.579l103.103,121.841
				c7.337,8.67,20.672,8.77,28.138,0.211l101.458-116.319l233.533,5.753c52.812,1.301,95.409-40.151,95.409-92.579V875.152
				C1714.868,822.724,1672.27,777.929,1619.458,775.084z"/>
			<path style="fill:#FFFFFF;" d="M1507.046,1000.746c-3.829-71.84-52.648-132.197-113.447-139.838
				c-48.356-6.077-91.383,21.257-114.287,65.481c-22.958-46.399-66.384-78.036-115.655-76.692
				c-62.661,1.708-113.56,58.602-117.573,131.814c-2.652,48.377,14.904,92.84,43.726,122.815l176.878,144.069
				c7.641,6.223,17.604,6.503,25.23,0.717l173.253-131.447C1492.814,1090.335,1509.574,1048.185,1507.046,1000.746z"/>
		</g>
	</g>
</g>
</svg>
